<?xml version="1.0" standalone="no"?>
<!DOCTYPE svg PUBLIC "-//W3C//DTD SVG 1.1//EN" "http://www.w3.org/Graphics/SVG/1.1/DTD/svg11.dtd">
<svg version="1.1" width="1200" height="854" onload="init(evt)" viewBox="0 0 1200 854" xmlns="http://www.w3.org/2000/svg" xmlns:xlink="http://www.w3.org/1999/xlink">
<!-- Flame graph stack visualization. See https://github.com/brendangregg/FlameGraph for latest version, and http://www.brendangregg.com/flamegraphs.html for examples. -->
<!-- NOTES:  -->
<defs>
	<linearGradient id="background" y1="0" y2="1" x1="0" x2="0" >
		<stop stop-color="#eeeeee" offset="5%" />
		<stop stop-color="#eeeeb0" offset="95%" />
	</linearGradient>
</defs>
<style type="text/css">
	text { font-family:Verdana; font-size:12px; fill:rgb(0,0,0); }
	#search, #ignorecase { opacity:0.1; cursor:pointer; }
	#search:hover, #search.show, #ignorecase:hover, #ignorecase.show { opacity:1; }
	#subtitle { text-anchor:middle; font-color:rgb(160,160,160); }
	#title { text-anchor:middle; font-size:17px}
	#unzoom { cursor:pointer; }
	#frames > *:hover { stroke:black; stroke-width:0.5; cursor:pointer; }
	.hide { display:none; }
	.parent { opacity:0.5; }
</style>
<script type="text/ecmascript">
<![CDATA[
	"use strict";
	var details, searchbtn, unzoombtn, matchedtxt, svg, searching, currentSearchTerm, ignorecase, ignorecaseBtn;
	function init(evt) {
		details = document.getElementById("details").firstChild;
		searchbtn = document.getElementById("search");
		ignorecaseBtn = document.getElementById("ignorecase");
		unzoombtn = document.getElementById("unzoom");
		matchedtxt = document.getElementById("matched");
		svg = document.getElementsByTagName("svg")[0];
		searching = 0;
		currentSearchTerm = null;

		// use GET parameters to restore a flamegraphs state.
		var params = get_params();
		if (params.x && params.y)
			zoom(find_group(document.querySelector('[x="' + params.x + '"][y="' + params.y + '"]')));
                if (params.s) search(params.s);
	}

	// event listeners
	window.addEventListener("click", function(e) {
		var target = find_group(e.target);
		if (target) {
			if (target.nodeName == "a") {
				if (e.ctrlKey === false) return;
				e.preventDefault();
			}
			if (target.classList.contains("parent")) unzoom();
			zoom(target);
			if (!document.querySelector('.parent')) {
				clearzoom();
				return;
			}

			// set parameters for zoom state
			var el = target.querySelector("rect");
			if (el && el.attributes && el.attributes.y && el.attributes._orig_x) {
				var params = get_params()
				params.x = el.attributes._orig_x.value;
				params.y = el.attributes.y.value;
				history.replaceState(null, null, parse_params(params));
			}
		}
		else if (e.target.id == "unzoom") clearzoom();
		else if (e.target.id == "search") search_prompt();
		else if (e.target.id == "ignorecase") toggle_ignorecase();
	}, false)

	// mouse-over for info
	// show
	window.addEventListener("mouseover", function(e) {
		var target = find_group(e.target);
		if (target) details.nodeValue = "Function: " + g_to_text(target);
	}, false)

	// clear
	window.addEventListener("mouseout", function(e) {
		var target = find_group(e.target);
		if (target) details.nodeValue = ' ';
	}, false)

	// ctrl-F for search
	// ctrl-I to toggle case-sensitive search
	window.addEventListener("keydown",function (e) {
		if (e.keyCode === 114 || (e.ctrlKey && e.keyCode === 70)) {
			e.preventDefault();
			search_prompt();
		}
		else if (e.ctrlKey && e.keyCode === 73) {
			e.preventDefault();
			toggle_ignorecase();
		}
	}, false)

	// functions
	function get_params() {
		var params = {};
		var paramsarr = window.location.search.substr(1).split('&');
		for (var i = 0; i < paramsarr.length; ++i) {
			var tmp = paramsarr[i].split("=");
			if (!tmp[0] || !tmp[1]) continue;
			params[tmp[0]]  = decodeURIComponent(tmp[1]);
		}
		return params;
	}
	function parse_params(params) {
		var uri = "?";
		for (var key in params) {
			uri += key + '=' + encodeURIComponent(params[key]) + '&';
		}
		if (uri.slice(-1) == "&")
			uri = uri.substring(0, uri.length - 1);
		if (uri == '?')
			uri = window.location.href.split('?')[0];
		return uri;
	}
	function find_child(node, selector) {
		var children = node.querySelectorAll(selector);
		if (children.length) return children[0];
	}
	function find_group(node) {
		var parent = node.parentElement;
		if (!parent) return;
		if (parent.id == "frames") return node;
		return find_group(parent);
	}
	function orig_save(e, attr, val) {
		if (e.attributes["_orig_" + attr] != undefined) return;
		if (e.attributes[attr] == undefined) return;
		if (val == undefined) val = e.attributes[attr].value;
		e.setAttribute("_orig_" + attr, val);
	}
	function orig_load(e, attr) {
		if (e.attributes["_orig_"+attr] == undefined) return;
		e.attributes[attr].value = e.attributes["_orig_" + attr].value;
		e.removeAttribute("_orig_"+attr);
	}
	function g_to_text(e) {
		var text = find_child(e, "title").firstChild.nodeValue;
		return (text)
	}
	function g_to_func(e) {
		var func = g_to_text(e);
		// if there's any manipulation we want to do to the function
		// name before it's searched, do it here before returning.
		return (func);
	}
	function update_text(e) {
		var r = find_child(e, "rect");
		var t = find_child(e, "text");
		var w = parseFloat(r.attributes.width.value) -3;
		var txt = find_child(e, "title").textContent.replace(/\([^(]*\)$/,"");
		t.attributes.x.value = parseFloat(r.attributes.x.value) + 3;

		// Smaller than this size won't fit anything
		if (w < 2 * 12 * 0.59) {
			t.textContent = "";
			return;
		}

		t.textContent = txt;
		// Fit in full text width
		if (/^ *$/.test(txt) || t.getSubStringLength(0, txt.length) < w)
			return;

		for (var x = txt.length - 2; x > 0; x--) {
			if (t.getSubStringLength(0, x + 2) <= w) {
				t.textContent = txt.substring(0, x) + "..";
				return;
			}
		}
		t.textContent = "";
	}

	// zoom
	function zoom_reset(e) {
		if (e.attributes != undefined) {
			orig_load(e, "x");
			orig_load(e, "width");
		}
		if (e.childNodes == undefined) return;
		for (var i = 0, c = e.childNodes; i < c.length; i++) {
			zoom_reset(c[i]);
		}
	}
	function zoom_child(e, x, ratio) {
		if (e.attributes != undefined) {
			if (e.attributes.x != undefined) {
				orig_save(e, "x");
				e.attributes.x.value = (parseFloat(e.attributes.x.value) - x - 10) * ratio + 10;
				if (e.tagName == "text")
					e.attributes.x.value = find_child(e.parentNode, "rect[x]").attributes.x.value + 3;
			}
			if (e.attributes.width != undefined) {
				orig_save(e, "width");
				e.attributes.width.value = parseFloat(e.attributes.width.value) * ratio;
			}
		}

		if (e.childNodes == undefined) return;
		for (var i = 0, c = e.childNodes; i < c.length; i++) {
			zoom_child(c[i], x - 10, ratio);
		}
	}
	function zoom_parent(e) {
		if (e.attributes) {
			if (e.attributes.x != undefined) {
				orig_save(e, "x");
				e.attributes.x.value = 10;
			}
			if (e.attributes.width != undefined) {
				orig_save(e, "width");
				e.attributes.width.value = parseInt(svg.width.baseVal.value) - (10 * 2);
			}
		}
		if (e.childNodes == undefined) return;
		for (var i = 0, c = e.childNodes; i < c.length; i++) {
			zoom_parent(c[i]);
		}
	}
	function zoom(node) {
		var attr = find_child(node, "rect").attributes;
		var width = parseFloat(attr.width.value);
		var xmin = parseFloat(attr.x.value);
		var xmax = parseFloat(xmin + width);
		var ymin = parseFloat(attr.y.value);
		var ratio = (svg.width.baseVal.value - 2 * 10) / width;

		// XXX: Workaround for JavaScript float issues (fix me)
		var fudge = 0.0001;

		unzoombtn.classList.remove("hide");

		var el = document.getElementById("frames").children;
		for (var i = 0; i < el.length; i++) {
			var e = el[i];
			var a = find_child(e, "rect").attributes;
			var ex = parseFloat(a.x.value);
			var ew = parseFloat(a.width.value);
			var upstack;
			// Is it an ancestor
			if (0 == 0) {
				upstack = parseFloat(a.y.value) > ymin;
			} else {
				upstack = parseFloat(a.y.value) < ymin;
			}
			if (upstack) {
				// Direct ancestor
				if (ex <= xmin && (ex+ew+fudge) >= xmax) {
					e.classList.add("parent");
					zoom_parent(e);
					update_text(e);
				}
				// not in current path
				else
					e.classList.add("hide");
			}
			// Children maybe
			else {
				// no common path
				if (ex < xmin || ex + fudge >= xmax) {
					e.classList.add("hide");
				}
				else {
					zoom_child(e, xmin, ratio);
					update_text(e);
				}
			}
		}
		search();
	}
	function unzoom() {
		unzoombtn.classList.add("hide");
		var el = document.getElementById("frames").children;
		for(var i = 0; i < el.length; i++) {
			el[i].classList.remove("parent");
			el[i].classList.remove("hide");
			zoom_reset(el[i]);
			update_text(el[i]);
		}
		search();
	}
	function clearzoom() {
		unzoom();

		// remove zoom state
		var params = get_params();
		if (params.x) delete params.x;
		if (params.y) delete params.y;
		history.replaceState(null, null, parse_params(params));
	}

	// search
	function toggle_ignorecase() {
		ignorecase = !ignorecase;
		if (ignorecase) {
			ignorecaseBtn.classList.add("show");
		} else {
			ignorecaseBtn.classList.remove("show");
		}
		reset_search();
		search();
	}
	function reset_search() {
		var el = document.querySelectorAll("#frames rect");
		for (var i = 0; i < el.length; i++) {
			orig_load(el[i], "fill")
		}
		var params = get_params();
		delete params.s;
		history.replaceState(null, null, parse_params(params));
	}
	function search_prompt() {
		if (!searching) {
			var term = prompt("Enter a search term (regexp " +
			    "allowed, eg: ^ext4_)"
			    + (ignorecase ? ", ignoring case" : "")
			    + "\nPress Ctrl-i to toggle case sensitivity", "");
			if (term != null) search(term);
		} else {
			reset_search();
			searching = 0;
			currentSearchTerm = null;
			searchbtn.classList.remove("show");
			searchbtn.firstChild.nodeValue = "Search"
			matchedtxt.classList.add("hide");
			matchedtxt.firstChild.nodeValue = ""
		}
	}
	function search(term) {
		if (term) currentSearchTerm = term;

		var re = new RegExp(currentSearchTerm, ignorecase ? 'i' : '');
		var el = document.getElementById("frames").children;
		var matches = new Object();
		var maxwidth = 0;
		for (var i = 0; i < el.length; i++) {
			var e = el[i];
			var func = g_to_func(e);
			var rect = find_child(e, "rect");
			if (func == null || rect == null)
				continue;

			// Save max width. Only works as we have a root frame
			var w = parseFloat(rect.attributes.width.value);
			if (w > maxwidth)
				maxwidth = w;

			if (func.match(re)) {
				// highlight
				var x = parseFloat(rect.attributes.x.value);
				orig_save(rect, "fill");
				rect.attributes.fill.value = "rgb(230,0,230)";

				// remember matches
				if (matches[x] == undefined) {
					matches[x] = w;
				} else {
					if (w > matches[x]) {
						// overwrite with parent
						matches[x] = w;
					}
				}
				searching = 1;
			}
		}
		if (!searching)
			return;
		var params = get_params();
		params.s = currentSearchTerm;
		history.replaceState(null, null, parse_params(params));

		searchbtn.classList.add("show");
		searchbtn.firstChild.nodeValue = "Reset Search";

		// calculate percent matched, excluding vertical overlap
		var count = 0;
		var lastx = -1;
		var lastw = 0;
		var keys = Array();
		for (k in matches) {
			if (matches.hasOwnProperty(k))
				keys.push(k);
		}
		// sort the matched frames by their x location
		// ascending, then width descending
		keys.sort(function(a, b){
			return a - b;
		});
		// Step through frames saving only the biggest bottom-up frames
		// thanks to the sort order. This relies on the tree property
		// where children are always smaller than their parents.
		var fudge = 0.0001;	// JavaScript floating point
		for (var k in keys) {
			var x = parseFloat(keys[k]);
			var w = matches[keys[k]];
			if (x >= lastx + lastw - fudge) {
				count += w;
				lastx = x;
				lastw = w;
			}
		}
		// display matched percent
		matchedtxt.classList.remove("hide");
		var pct = 100 * count / maxwidth;
		if (pct != 100) pct = pct.toFixed(1)
		matchedtxt.firstChild.nodeValue = "Matched: " + pct + "%";
	}
]]>
</script>
<rect x="0.0" y="0" width="1200.0" height="854.0" fill="url(#background)"  />
<text id="title" x="600.00" y="24" >Flame Graph</text>
<text id="details" x="10.00" y="837" > </text>
<text id="unzoom" x="10.00" y="24" class="hide">Reset Zoom</text>
<text id="search" x="1090.00" y="24" >Search</text>
<text id="ignorecase" x="1174.00" y="24" >ic</text>
<text id="matched" x="1090.00" y="837" > </text>
<g id="frames">
<g >
<title>__perf_event_task_sched_in (1 samples, 2.50%)</title><rect x="895.0" y="405" width="29.5" height="15.0" fill="rgb(249,169,48)" rx="2" ry="2" />
<text  x="898.00" y="415.5" >__..</text>
</g>
<g >
<title>__x64_sys_epoll_pwait (4 samples, 10.00%)</title><rect x="1042.5" y="549" width="118.0" height="15.0" fill="rgb(244,83,52)" rx="2" ry="2" />
<text  x="1045.50" y="559.5" >__x64_sys_epol..</text>
</g>
<g >
<title>[kube-apiserver] (37 samples, 92.50%)</title><rect x="98.5" y="725" width="1091.5" height="15.0" fill="rgb(208,112,34)" rx="2" ry="2" />
<text  x="101.50" y="735.5" >[kube-apiserver]</text>
</g>
<g >
<title>dequeue_entities (1 samples, 2.50%)</title><rect x="924.5" y="373" width="29.5" height="15.0" fill="rgb(245,219,26)" rx="2" ry="2" />
<text  x="927.50" y="383.5" >de..</text>
</g>
<g >
<title>__futex_wait (1 samples, 2.50%)</title><rect x="983.5" y="485" width="29.5" height="15.0" fill="rgb(209,166,14)" rx="2" ry="2" />
<text  x="986.50" y="495.5" >__..</text>
</g>
<g >
<title>[kube-apiserver] (37 samples, 92.50%)</title><rect x="98.5" y="757" width="1091.5" height="15.0" fill="rgb(240,20,7)" rx="2" ry="2" />
<text  x="101.50" y="767.5" >[kube-apiserver]</text>
</g>
<g >
<title>[kube-apiserver] (1 samples, 2.50%)</title><rect x="747.5" y="181" width="29.5" height="15.0" fill="rgb(225,177,34)" rx="2" ry="2" />
<text  x="750.50" y="191.5" >[k..</text>
</g>
<g >
<title>dequeue_task (1 samples, 2.50%)</title><rect x="924.5" y="405" width="29.5" height="15.0" fill="rgb(211,121,3)" rx="2" ry="2" />
<text  x="927.50" y="415.5" >de..</text>
</g>
<g >
<title>entry_SYSCALL_64_after_hwframe (4 samples, 10.00%)</title><rect x="1042.5" y="597" width="118.0" height="15.0" fill="rgb(221,175,13)" rx="2" ry="2" />
<text  x="1045.50" y="607.5" >entry_SYSCALL_..</text>
</g>
<g >
<title>update_entity_lag (1 samples, 2.50%)</title><rect x="1072.0" y="357" width="29.5" height="15.0" fill="rgb(218,187,49)" rx="2" ry="2" />
<text  x="1075.00" y="367.5" >up..</text>
</g>
<g >
<title>do_epoll_pwait.part.0 (4 samples, 10.00%)</title><rect x="1042.5" y="533" width="118.0" height="15.0" fill="rgb(247,158,43)" rx="2" ry="2" />
<text  x="1045.50" y="543.5" >do_epoll_pwait..</text>
</g>
<g >
<title>dequeue_entity (2 samples, 5.00%)</title><rect x="1072.0" y="373" width="59.0" height="15.0" fill="rgb(250,86,45)" rx="2" ry="2" />
<text  x="1075.00" y="383.5" >dequeu..</text>
</g>
<g >
<title>[kube-apiserver] (2 samples, 5.00%)</title><rect x="718.0" y="261" width="59.0" height="15.0" fill="rgb(234,211,16)" rx="2" ry="2" />
<text  x="721.00" y="271.5" >[kube-..</text>
</g>
<g >
<title>futex_wait_queue (1 samples, 2.50%)</title><rect x="983.5" y="469" width="29.5" height="15.0" fill="rgb(244,217,7)" rx="2" ry="2" />
<text  x="986.50" y="479.5" >fu..</text>
</g>
<g >
<title>[kube-apiserver] (1 samples, 2.50%)</title><rect x="747.5" y="149" width="29.5" height="15.0" fill="rgb(246,184,32)" rx="2" ry="2" />
<text  x="750.50" y="159.5" >[k..</text>
</g>
<g >
<title>[kube-apiserver] (1 samples, 2.50%)</title><rect x="747.5" y="117" width="29.5" height="15.0" fill="rgb(212,67,33)" rx="2" ry="2" />
<text  x="750.50" y="127.5" >[k..</text>
</g>
<g >
<title>try_to_block_task.constprop.0.isra.0 (2 samples, 5.00%)</title><rect x="1072.0" y="437" width="59.0" height="15.0" fill="rgb(232,158,46)" rx="2" ry="2" />
<text  x="1075.00" y="447.5" >try_to..</text>
</g>
<g >
<title>dequeue_task_fair (1 samples, 2.50%)</title><rect x="924.5" y="389" width="29.5" height="15.0" fill="rgb(238,221,4)" rx="2" ry="2" />
<text  x="927.50" y="399.5" >de..</text>
</g>
<g >
<title>[kube-apiserver] (2 samples, 5.00%)</title><rect x="718.0" y="405" width="59.0" height="15.0" fill="rgb(248,24,44)" rx="2" ry="2" />
<text  x="721.00" y="415.5" >[kube-..</text>
</g>
<g >
<title>[kube-apiserver] (36 samples, 90.00%)</title><rect x="128.0" y="693" width="1062.0" height="15.0" fill="rgb(236,2,54)" rx="2" ry="2" />
<text  x="131.00" y="703.5" >[kube-apiserver]</text>
</g>
<g >
<title>hrtimer_setup_sleeper_on_stack (1 samples, 2.50%)</title><rect x="806.5" y="469" width="29.5" height="15.0" fill="rgb(234,96,34)" rx="2" ry="2" />
<text  x="809.50" y="479.5" >hr..</text>
</g>
<g >
<title>schedule (1 samples, 2.50%)</title><rect x="983.5" y="453" width="29.5" height="15.0" fill="rgb(229,111,18)" rx="2" ry="2" />
<text  x="986.50" y="463.5" >sc..</text>
</g>
<g >
<title>[kube-apiserver] (1 samples, 2.50%)</title><rect x="747.5" y="69" width="29.5" height="15.0" fill="rgb(229,14,42)" rx="2" ry="2" />
<text  x="750.50" y="79.5" >[k..</text>
</g>
<g >
<title>[kube-apiserver] (5 samples, 12.50%)</title><rect x="629.5" y="549" width="147.5" height="15.0" fill="rgb(229,32,24)" rx="2" ry="2" />
<text  x="632.50" y="559.5" >[kube-apiserver]</text>
</g>
<g >
<title>[kube-apiserver] (2 samples, 5.00%)</title><rect x="718.0" y="245" width="59.0" height="15.0" fill="rgb(214,34,49)" rx="2" ry="2" />
<text  x="721.00" y="255.5" >[kube-..</text>
</g>
<g >
<title>kube-apiserver (40 samples, 100.00%)</title><rect x="10.0" y="789" width="1180.0" height="15.0" fill="rgb(253,153,47)" rx="2" ry="2" />
<text  x="13.00" y="799.5" >kube-apiserver</text>
</g>
<g >
<title>task_mm_cid_work (1 samples, 2.50%)</title><rect x="777.0" y="517" width="29.5" height="15.0" fill="rgb(243,148,24)" rx="2" ry="2" />
<text  x="780.00" y="527.5" >ta..</text>
</g>
<g >
<title>do_futex (1 samples, 2.50%)</title><rect x="983.5" y="517" width="29.5" height="15.0" fill="rgb(243,193,34)" rx="2" ry="2" />
<text  x="986.50" y="527.5" >do..</text>
</g>
<g >
<title>syscall_exit_to_user_mode (1 samples, 2.50%)</title><rect x="777.0" y="549" width="29.5" height="15.0" fill="rgb(231,9,31)" rx="2" ry="2" />
<text  x="780.00" y="559.5" >sy..</text>
</g>
<g >
<title>dequeue_task_fair (2 samples, 5.00%)</title><rect x="1072.0" y="405" width="59.0" height="15.0" fill="rgb(220,85,10)" rx="2" ry="2" />
<text  x="1075.00" y="415.5" >dequeu..</text>
</g>
<g >
<title>ep_poll (5 samples, 12.50%)</title><rect x="806.5" y="485" width="147.5" height="15.0" fill="rgb(208,14,46)" rx="2" ry="2" />
<text  x="809.50" y="495.5" >ep_poll</text>
</g>
<g >
<title>[kube-apiserver] (1 samples, 2.50%)</title><rect x="747.5" y="165" width="29.5" height="15.0" fill="rgb(216,82,37)" rx="2" ry="2" />
<text  x="750.50" y="175.5" >[k..</text>
</g>
<g >
<title>[kube-apiserver] (2 samples, 5.00%)</title><rect x="718.0" y="421" width="59.0" height="15.0" fill="rgb(252,170,51)" rx="2" ry="2" />
<text  x="721.00" y="431.5" >[kube-..</text>
</g>
<g >
<title>dequeue_entities (2 samples, 5.00%)</title><rect x="1072.0" y="389" width="59.0" height="15.0" fill="rgb(249,150,6)" rx="2" ry="2" />
<text  x="1075.00" y="399.5" >dequeu..</text>
</g>
<g >
<title>__calc_delta.constprop.0 (1 samples, 2.50%)</title><rect x="1072.0" y="341" width="29.5" height="15.0" fill="rgb(236,33,18)" rx="2" ry="2" />
<text  x="1075.00" y="351.5" >__..</text>
</g>
<g >
<title>update_curr_se (1 samples, 2.50%)</title><rect x="924.5" y="325" width="29.5" height="15.0" fill="rgb(224,216,16)" rx="2" ry="2" />
<text  x="927.50" y="335.5" >up..</text>
</g>
<g >
<title>do_syscall_64 (4 samples, 10.00%)</title><rect x="1042.5" y="581" width="118.0" height="15.0" fill="rgb(205,195,17)" rx="2" ry="2" />
<text  x="1045.50" y="591.5" >do_syscall_64</text>
</g>
<g >
<title>do_epoll_pwait.part.0 (6 samples, 15.00%)</title><rect x="806.5" y="517" width="177.0" height="15.0" fill="rgb(250,56,13)" rx="2" ry="2" />
<text  x="809.50" y="527.5" >do_epoll_pwait.part.0</text>
</g>
<g >
<title>hrtimer_start_range_ns (1 samples, 2.50%)</title><rect x="836.0" y="437" width="29.5" height="15.0" fill="rgb(211,202,8)" rx="2" ry="2" />
<text  x="839.00" y="447.5" >hr..</text>
</g>
<g >
<title>[kube-apiserver] (16 samples, 40.00%)</title><rect x="541.0" y="597" width="472.0" height="15.0" fill="rgb(206,142,50)" rx="2" ry="2" />
<text  x="544.00" y="607.5" >[kube-apiserver]</text>
</g>
<g >
<title>[kube-apiserver] (37 samples, 92.50%)</title><rect x="98.5" y="773" width="1091.5" height="15.0" fill="rgb(218,122,42)" rx="2" ry="2" />
<text  x="101.50" y="783.5" >[kube-apiserver]</text>
</g>
<g >
<title>[kube-apiserver] (1 samples, 2.50%)</title><rect x="747.5" y="133" width="29.5" height="15.0" fill="rgb(232,164,46)" rx="2" ry="2" />
<text  x="750.50" y="143.5" >[k..</text>
</g>
<g >
<title>[kube-apiserver] (2 samples, 5.00%)</title><rect x="718.0" y="341" width="59.0" height="15.0" fill="rgb(237,85,18)" rx="2" ry="2" />
<text  x="721.00" y="351.5" >[kube-..</text>
</g>
<g >
<title>hrtimer_sleeper_start_expires (1 samples, 2.50%)</title><rect x="836.0" y="453" width="29.5" height="15.0" fill="rgb(221,9,10)" rx="2" ry="2" />
<text  x="839.00" y="463.5" >hr..</text>
</g>
<g >
<title>entry_SYSCALL_64 (1 samples, 2.50%)</title><rect x="1013.0" y="597" width="29.5" height="15.0" fill="rgb(231,33,12)" rx="2" ry="2" />
<text  x="1016.00" y="607.5" >en..</text>
</g>
<g >
<title>[kube-apiserver] (1 samples, 2.50%)</title><rect x="747.5" y="53" width="29.5" height="15.0" fill="rgb(206,100,11)" rx="2" ry="2" />
<text  x="750.50" y="63.5" >[k..</text>
</g>
<g >
<title>[kube-apiserver] (37 samples, 92.50%)</title><rect x="98.5" y="709" width="1091.5" height="15.0" fill="rgb(244,146,12)" rx="2" ry="2" />
<text  x="101.50" y="719.5" >[kube-apiserver]</text>
</g>
<g >
<title>schedule_hrtimeout_range (4 samples, 10.00%)</title><rect x="836.0" y="469" width="118.0" height="15.0" fill="rgb(248,174,35)" rx="2" ry="2" />
<text  x="839.00" y="479.5" >schedule_hrtim..</text>
</g>
<g >
<title>[kube-apiserver] (1 samples, 2.50%)</title><rect x="747.5" y="37" width="29.5" height="15.0" fill="rgb(220,0,43)" rx="2" ry="2" />
<text  x="750.50" y="47.5" >[k..</text>
</g>
<g >
<title>[kube-apiserver] (5 samples, 12.50%)</title><rect x="629.5" y="533" width="147.5" height="15.0" fill="rgb(235,39,40)" rx="2" ry="2" />
<text  x="632.50" y="543.5" >[kube-apiserver]</text>
</g>
<g >
<title>[kube-apiserver] (5 samples, 12.50%)</title><rect x="629.5" y="517" width="147.5" height="15.0" fill="rgb(209,103,12)" rx="2" ry="2" />
<text  x="632.50" y="527.5" >[kube-apiserver]</text>
</g>
<g >
<title>do_syscall_64 (8 samples, 20.00%)</title><rect x="777.0" y="565" width="236.0" height="15.0" fill="rgb(215,222,43)" rx="2" ry="2" />
<text  x="780.00" y="575.5" >do_syscall_64</text>
</g>
<g >
<title>[kube-apiserver] (35 samples, 87.50%)</title><rect x="157.5" y="677" width="1032.5" height="15.0" fill="rgb(240,109,36)" rx="2" ry="2" />
<text  x="160.50" y="687.5" >[kube-apiserver]</text>
</g>
<g >
<title>[kube-apiserver] (2 samples, 5.00%)</title><rect x="718.0" y="277" width="59.0" height="15.0" fill="rgb(206,6,29)" rx="2" ry="2" />
<text  x="721.00" y="287.5" >[kube-..</text>
</g>
<g >
<title>[kube-apiserver] (2 samples, 5.00%)</title><rect x="718.0" y="309" width="59.0" height="15.0" fill="rgb(252,80,36)" rx="2" ry="2" />
<text  x="721.00" y="319.5" >[kube-..</text>
</g>
<g >
<title>dequeue_task (1 samples, 2.50%)</title><rect x="865.5" y="421" width="29.5" height="15.0" fill="rgb(231,36,38)" rx="2" ry="2" />
<text  x="868.50" y="431.5" >de..</text>
</g>
<g >
<title>futex_wait (1 samples, 2.50%)</title><rect x="983.5" y="501" width="29.5" height="15.0" fill="rgb(243,11,49)" rx="2" ry="2" />
<text  x="986.50" y="511.5" >fu..</text>
</g>
<g >
<title>pick_next_task (1 samples, 2.50%)</title><rect x="1042.5" y="437" width="29.5" height="15.0" fill="rgb(250,82,24)" rx="2" ry="2" />
<text  x="1045.50" y="447.5" >pi..</text>
</g>
<g >
<title>[kube-apiserver] (33 samples, 82.50%)</title><rect x="216.5" y="645" width="973.5" height="15.0" fill="rgb(227,22,9)" rx="2" ry="2" />
<text  x="219.50" y="655.5" >[kube-apiserver]</text>
</g>
<g >
<title>[kube-apiserver] (6 samples, 15.00%)</title><rect x="600.0" y="581" width="177.0" height="15.0" fill="rgb(227,75,41)" rx="2" ry="2" />
<text  x="603.00" y="591.5" >[kube-apiserver]</text>
</g>
<g >
<title>entry_SYSRETQ_unsafe_stack (1 samples, 2.50%)</title><rect x="1160.5" y="597" width="29.5" height="15.0" fill="rgb(223,57,53)" rx="2" ry="2" />
<text  x="1163.50" y="607.5" >en..</text>
</g>
<g >
<title>[kube-apiserver] (3 samples, 7.50%)</title><rect x="688.5" y="485" width="88.5" height="15.0" fill="rgb(231,197,19)" rx="2" ry="2" />
<text  x="691.50" y="495.5" >[kube-apis..</text>
</g>
<g >
<title>[kube-apiserver] (1 samples, 2.50%)</title><rect x="747.5" y="101" width="29.5" height="15.0" fill="rgb(224,204,14)" rx="2" ry="2" />
<text  x="750.50" y="111.5" >[k..</text>
</g>
<g >
<title>entry_SYSCALL_64_after_hwframe (8 samples, 20.00%)</title><rect x="777.0" y="581" width="236.0" height="15.0" fill="rgb(221,173,8)" rx="2" ry="2" />
<text  x="780.00" y="591.5" >entry_SYSCALL_64_after_hwframe</text>
</g>
<g >
<title>x64_sys_call (4 samples, 10.00%)</title><rect x="1042.5" y="565" width="118.0" height="15.0" fill="rgb(221,121,52)" rx="2" ry="2" />
<text  x="1045.50" y="575.5" >x64_sys_call</text>
</g>
<g >
<title>dequeue_task (2 samples, 5.00%)</title><rect x="1072.0" y="421" width="59.0" height="15.0" fill="rgb(225,218,1)" rx="2" ry="2" />
<text  x="1075.00" y="431.5" >dequeu..</text>
</g>
<g >
<title>fdget (1 samples, 2.50%)</title><rect x="954.0" y="485" width="29.5" height="15.0" fill="rgb(244,26,35)" rx="2" ry="2" />
<text  x="957.00" y="495.5" >fd..</text>
</g>
<g >
<title>schedule (3 samples, 7.50%)</title><rect x="865.5" y="453" width="88.5" height="15.0" fill="rgb(232,35,8)" rx="2" ry="2" />
<text  x="868.50" y="463.5" >schedule</text>
</g>
<g >
<title>fdget (1 samples, 2.50%)</title><rect x="1131.0" y="501" width="29.5" height="15.0" fill="rgb(215,189,29)" rx="2" ry="2" />
<text  x="1134.00" y="511.5" >fd..</text>
</g>
<g >
<title>[kube-apiserver] (2 samples, 5.00%)</title><rect x="718.0" y="389" width="59.0" height="15.0" fill="rgb(208,200,4)" rx="2" ry="2" />
<text  x="721.00" y="399.5" >[kube-..</text>
</g>
<g >
<title>__x64_sys_epoll_pwait (6 samples, 15.00%)</title><rect x="806.5" y="533" width="177.0" height="15.0" fill="rgb(234,151,17)" rx="2" ry="2" />
<text  x="809.50" y="543.5" >__x64_sys_epoll_pwait</text>
</g>
<g >
<title>dequeue_entity (1 samples, 2.50%)</title><rect x="924.5" y="357" width="29.5" height="15.0" fill="rgb(224,37,25)" rx="2" ry="2" />
<text  x="927.50" y="367.5" >de..</text>
</g>
<g >
<title>try_to_block_task.constprop.0.isra.0 (1 samples, 2.50%)</title><rect x="924.5" y="421" width="29.5" height="15.0" fill="rgb(224,162,33)" rx="2" ry="2" />
<text  x="927.50" y="431.5" >tr..</text>
</g>
<g >
<title>task_work_run (1 samples, 2.50%)</title><rect x="777.0" y="533" width="29.5" height="15.0" fill="rgb(219,140,20)" rx="2" ry="2" />
<text  x="780.00" y="543.5" >ta..</text>
</g>
<g >
<title>[kube-apiserver] (2 samples, 5.00%)</title><rect x="718.0" y="357" width="59.0" height="15.0" fill="rgb(222,175,7)" rx="2" ry="2" />
<text  x="721.00" y="367.5" >[kube-..</text>
</g>
<g >
<title>[kube-apiserver] (2 samples, 5.00%)</title><rect x="718.0" y="373" width="59.0" height="15.0" fill="rgb(250,28,54)" rx="2" ry="2" />
<text  x="721.00" y="383.5" >[kube-..</text>
</g>
<g >
<title>psi_group_change (1 samples, 2.50%)</title><rect x="983.5" y="405" width="29.5" height="15.0" fill="rgb(254,205,4)" rx="2" ry="2" />
<text  x="986.50" y="415.5" >ps..</text>
</g>
<g >
<title>x64_sys_call (7 samples, 17.50%)</title><rect x="806.5" y="549" width="206.5" height="15.0" fill="rgb(250,42,18)" rx="2" ry="2" />
<text  x="809.50" y="559.5" >x64_sys_call</text>
</g>
<g >
<title>psi_task_switch (1 samples, 2.50%)</title><rect x="983.5" y="421" width="29.5" height="15.0" fill="rgb(246,156,6)" rx="2" ry="2" />
<text  x="986.50" y="431.5" >ps..</text>
</g>
<g >
<title>__pick_next_task (1 samples, 2.50%)</title><rect x="1042.5" y="421" width="29.5" height="15.0" fill="rgb(230,43,33)" rx="2" ry="2" />
<text  x="1045.50" y="431.5" >__..</text>
</g>
<g >
<title>ep_poll (3 samples, 7.50%)</title><rect x="1042.5" y="501" width="88.5" height="15.0" fill="rgb(217,99,32)" rx="2" ry="2" />
<text  x="1045.50" y="511.5" >ep_poll</text>
</g>
<g >
<title>[kube-apiserver] (3 samples, 7.50%)</title><rect x="688.5" y="453" width="88.5" height="15.0" fill="rgb(247,207,42)" rx="2" ry="2" />
<text  x="691.50" y="463.5" >[kube-apis..</text>
</g>
<g >
<title>perf_ctx_unlock (1 samples, 2.50%)</title><rect x="895.0" y="389" width="29.5" height="15.0" fill="rgb(208,166,41)" rx="2" ry="2" />
<text  x="898.00" y="399.5" >pe..</text>
</g>
<g >
<title>[kube-apiserver] (4 samples, 10.00%)</title><rect x="659.0" y="501" width="118.0" height="15.0" fill="rgb(244,211,9)" rx="2" ry="2" />
<text  x="662.00" y="511.5" >[kube-apiserver]</text>
</g>
<g >
<title>update_curr (1 samples, 2.50%)</title><rect x="924.5" y="341" width="29.5" height="15.0" fill="rgb(232,185,30)" rx="2" ry="2" />
<text  x="927.50" y="351.5" >up..</text>
</g>
<g >
<title>[kube-apiserver] (26 samples, 65.00%)</title><rect x="423.0" y="613" width="767.0" height="15.0" fill="rgb(225,17,4)" rx="2" ry="2" />
<text  x="426.00" y="623.5" >[kube-apiserver]</text>
</g>
<g >
<title>[kube-apiserver] (37 samples, 92.50%)</title><rect x="98.5" y="741" width="1091.5" height="15.0" fill="rgb(248,143,9)" rx="2" ry="2" />
<text  x="101.50" y="751.5" >[kube-apiserver]</text>
</g>
<g >
<title>finish_task_switch.isra.0 (1 samples, 2.50%)</title><rect x="895.0" y="421" width="29.5" height="15.0" fill="rgb(236,50,2)" rx="2" ry="2" />
<text  x="898.00" y="431.5" >fi..</text>
</g>
<g >
<title>schedule (3 samples, 7.50%)</title><rect x="1042.5" y="469" width="88.5" height="15.0" fill="rgb(245,17,30)" rx="2" ry="2" />
<text  x="1045.50" y="479.5" >schedule</text>
</g>
<g >
<title>all (40 samples, 100%)</title><rect x="10.0" y="805" width="1180.0" height="15.0" fill="rgb(236,26,36)" rx="2" ry="2" />
<text  x="13.00" y="815.5" ></text>
</g>
<g >
<title>[kube-apiserver] (2 samples, 5.00%)</title><rect x="718.0" y="293" width="59.0" height="15.0" fill="rgb(217,65,13)" rx="2" ry="2" />
<text  x="721.00" y="303.5" >[kube-..</text>
</g>
<g >
<title>do_epoll_wait (4 samples, 10.00%)</title><rect x="1042.5" y="517" width="118.0" height="15.0" fill="rgb(250,207,50)" rx="2" ry="2" />
<text  x="1045.50" y="527.5" >do_epoll_wait</text>
</g>
<g >
<title>[kube-apiserver] (34 samples, 85.00%)</title><rect x="187.0" y="661" width="1003.0" height="15.0" fill="rgb(209,188,6)" rx="2" ry="2" />
<text  x="190.00" y="671.5" >[kube-apiserver]</text>
</g>
<g >
<title>timerqueue_add (1 samples, 2.50%)</title><rect x="836.0" y="405" width="29.5" height="15.0" fill="rgb(217,68,11)" rx="2" ry="2" />
<text  x="839.00" y="415.5" >ti..</text>
</g>
<g >
<title>do_epoll_wait (6 samples, 15.00%)</title><rect x="806.5" y="501" width="177.0" height="15.0" fill="rgb(251,76,44)" rx="2" ry="2" />
<text  x="809.50" y="511.5" >do_epoll_wait</text>
</g>
<g >
<title>__schedule (3 samples, 7.50%)</title><rect x="1042.5" y="453" width="88.5" height="15.0" fill="rgb(228,99,7)" rx="2" ry="2" />
<text  x="1045.50" y="463.5" >__schedule</text>
</g>
<g >
<title>[kube-apiserver] (2 samples, 5.00%)</title><rect x="718.0" y="213" width="59.0" height="15.0" fill="rgb(242,32,49)" rx="2" ry="2" />
<text  x="721.00" y="223.5" >[kube-..</text>
</g>
<g >
<title>__schedule (1 samples, 2.50%)</title><rect x="983.5" y="437" width="29.5" height="15.0" fill="rgb(207,75,28)" rx="2" ry="2" />
<text  x="986.50" y="447.5" >__..</text>
</g>
<g >
<title>[kube-apiserver] (1 samples, 2.50%)</title><rect x="747.5" y="197" width="29.5" height="15.0" fill="rgb(253,132,41)" rx="2" ry="2" />
<text  x="750.50" y="207.5" >[k..</text>
</g>
<g >
<title>[kube-apiserver] (6 samples, 15.00%)</title><rect x="600.0" y="565" width="177.0" height="15.0" fill="rgb(232,213,28)" rx="2" ry="2" />
<text  x="603.00" y="575.5" >[kube-apiserver]</text>
</g>
<g >
<title>[kube-apiserver] (1 samples, 2.50%)</title><rect x="747.5" y="85" width="29.5" height="15.0" fill="rgb(211,111,6)" rx="2" ry="2" />
<text  x="750.50" y="95.5" >[k..</text>
</g>
<g >
<title>__x64_sys_futex (1 samples, 2.50%)</title><rect x="983.5" y="533" width="29.5" height="15.0" fill="rgb(228,56,54)" rx="2" ry="2" />
<text  x="986.50" y="543.5" >__..</text>
</g>
<g >
<title>schedule_hrtimeout_range (3 samples, 7.50%)</title><rect x="1042.5" y="485" width="88.5" height="15.0" fill="rgb(219,15,19)" rx="2" ry="2" />
<text  x="1045.50" y="495.5" >schedule_h..</text>
</g>
<g >
<title>__schedule (3 samples, 7.50%)</title><rect x="865.5" y="437" width="88.5" height="15.0" fill="rgb(218,138,19)" rx="2" ry="2" />
<text  x="868.50" y="447.5" >__schedule</text>
</g>
<g >
<title>enqueue_hrtimer (1 samples, 2.50%)</title><rect x="836.0" y="421" width="29.5" height="15.0" fill="rgb(239,63,27)" rx="2" ry="2" />
<text  x="839.00" y="431.5" >en..</text>
</g>
<g >
<title>[kube-apiserver] (2 samples, 5.00%)</title><rect x="718.0" y="229" width="59.0" height="15.0" fill="rgb(210,215,19)" rx="2" ry="2" />
<text  x="721.00" y="239.5" >[kube-..</text>
</g>
<g >
<title>[kube-apiserver] (3 samples, 7.50%)</title><rect x="688.5" y="469" width="88.5" height="15.0" fill="rgb(209,111,6)" rx="2" ry="2" />
<text  x="691.50" y="479.5" >[kube-apis..</text>
</g>
<g >
<title>[kube-apiserver] (2 samples, 5.00%)</title><rect x="718.0" y="437" width="59.0" height="15.0" fill="rgb(227,98,39)" rx="2" ry="2" />
<text  x="721.00" y="447.5" >[kube-..</text>
</g>
<g >
<title>[kube-apiserver] (31 samples, 77.50%)</title><rect x="275.5" y="629" width="914.5" height="15.0" fill="rgb(207,49,50)" rx="2" ry="2" />
<text  x="278.50" y="639.5" >[kube-apiserver]</text>
</g>
<g >
<title>vruntime_eligible (1 samples, 2.50%)</title><rect x="1101.5" y="357" width="29.5" height="15.0" fill="rgb(234,157,1)" rx="2" ry="2" />
<text  x="1104.50" y="367.5" >vr..</text>
</g>
<g >
<title>[kube-apiserver] (2 samples, 5.00%)</title><rect x="718.0" y="325" width="59.0" height="15.0" fill="rgb(235,188,52)" rx="2" ry="2" />
<text  x="721.00" y="335.5" >[kube-..</text>
</g>
</g>
</svg>
